<svg aria-hidden="true" style="position: absolute; width: 0; height: 0; overflow: hidden;" version="1.1" xmlns="http://www.w3.org/2000/svg" xmlns:xlink="http://www.w3.org/1999/xlink">
<defs>
<symbol id="icon-arrows" viewBox="0 0 32 32">
<path d="M13.364 8.723v2.654c0 0.183 0.098 0.352 0.256 0.443l6.468 3.734c0.341 0.197 0.341 0.69 0 0.887l-6.468 3.734c-0.158 0.092-0.256 0.26-0.256 0.443v2.654c0 0.394 0.427 0.64 0.768 0.443l12.6-7.275c0.341-0.197 0.341-0.69 0-0.887l-12.6-7.275c-0.341-0.197-0.768 0.049-0.768 0.443z"></path>
<path d="M26.732 15.555l-12.6-7.275c-0.062-0.036-0.126-0.052-0.191-0.061l12.151 7.015c0.341 0.197 0.341 0.69 0 0.887l-12.6 7.275c-0.032 0.019-0.066 0.029-0.099 0.040 0.099 0.292 0.448 0.447 0.739 0.28l12.6-7.275c0.341-0.197 0.341-0.69 0-0.887z"></path>
<path d="M4.692 8.727v2.654c0 0.183 0.098 0.352 0.256 0.443l6.468 3.734c0.341 0.197 0.341 0.69 0 0.887l-6.468 3.734c-0.158 0.092-0.256 0.26-0.256 0.443v2.654c0 0.394 0.427 0.64 0.768 0.443l12.6-7.275c0.341-0.197 0.341-0.69 0-0.887l-12.6-7.275c-0.341-0.197-0.768 0.049-0.768 0.443z"></path>
<path d="M18.060 15.559l-12.6-7.275c-0.062-0.036-0.126-0.052-0.191-0.061l12.151 7.015c0.341 0.197 0.341 0.69 0 0.887l-12.6 7.275c-0.032 0.019-0.066 0.029-0.099 0.040 0.099 0.292 0.448 0.447 0.739 0.28l12.6-7.275c0.341-0.197 0.341-0.69 0-0.887z"></path>
</symbol>
<symbol id="icon-cross" viewBox="0 0 32 32">
<path d="M16 2.667c7.364 0 13.333 5.969 13.333 13.333s-5.969 13.333-13.333 13.333c-7.364 0-13.333-5.969-13.333-13.333s5.969-13.333 13.333-13.333zM17.886 16l3.771-3.771c0.521-0.521 0.521-1.365 0-1.886s-1.365-0.521-1.886 0l-3.771 3.771-3.771-3.771c-0.521-0.521-1.365-0.521-1.886 0s-0.521 1.365 0 1.886l3.771 3.771-3.771 3.771c-0.521 0.521-0.521 1.365 0 1.886s1.365 0.521 1.886 0l3.771-3.771 3.771 3.771c0.521 0.521 1.365 0.521 1.886 0s0.521-1.365 0-1.886l-3.771-3.771z"></path>
</symbol>
</defs>
</svg>
