<svg aria-hidden="true" style="position: absolute; width: 0; height: 0; overflow: hidden;" version="1.1" xmlns="http://www.w3.org/2000/svg" xmlns:xlink="http://www.w3.org/1999/xlink">
<defs>
<symbol id="icon-cross" viewBox="0 0 32 32">
<path d="M16 2.667c7.364 0 13.333 5.969 13.333 13.333s-5.969 13.333-13.333 13.333c-7.364 0-13.333-5.969-13.333-13.333s5.969-13.333 13.333-13.333zM17.886 16l3.771-3.771c0.521-0.521 0.521-1.365 0-1.886s-1.365-0.521-1.886 0l-3.771 3.771-3.771-3.771c-0.521-0.521-1.365-0.521-1.886 0s-0.521 1.365 0 1.886l3.771 3.771-3.771 3.771c-0.521 0.521-0.521 1.365 0 1.886s1.365 0.521 1.886 0l3.771-3.771 3.771 3.771c0.521 0.521 1.365 0.521 1.886 0s0.521-1.365 0-1.886l-3.771-3.771z"></path>
</symbol>
</defs>
</svg>
